# Blender v2.79 (sub 0) OBJ File: ''
# www.blender.org
mtllib bullet.mtl
o Cone
v 6.662129 2.974340 -3.626459
v 6.664080 2.974340 -3.626267
v 6.665956 2.974340 -3.625698
v 6.667685 2.974340 -3.624774
v 6.669200 2.974340 -3.623530
v 6.670444 2.974340 -3.622015
v 6.671368 2.974340 -3.620286
v 6.671937 2.974340 -3.618410
v 6.672130 2.974340 -3.616459
v 6.671937 2.974340 -3.614508
v 6.671368 2.974340 -3.612632
v 6.670444 2.974340 -3.610903
v 6.669200 2.974340 -3.609388
v 6.667685 2.974340 -3.608144
v 6.665956 2.974340 -3.607220
v 6.664080 2.974340 -3.606651
v 6.662129 2.974340 -3.606459
v 6.660179 2.974340 -3.606651
v 6.658303 2.974340 -3.607220
v 6.656574 2.974340 -3.608144
v 6.655058 2.974340 -3.609388
v 6.653815 2.974340 -3.610903
v 6.652891 2.974340 -3.612632
v 6.662129 3.174340 -3.616459
v 6.652321 2.974340 -3.614508
v 6.652129 2.974340 -3.616459
v 6.652321 2.974340 -3.618410
v 6.652891 2.974340 -3.620286
v 6.653815 2.974340 -3.622015
v 6.655058 2.974340 -3.623530
v 6.656574 2.974340 -3.624774
v 6.658303 2.974340 -3.625698
v 6.660179 2.974340 -3.626267
vn 0.0981 0.0497 -0.9939
vn 0.2897 0.0497 -0.9558
vn 0.4709 0.0497 -0.8808
vn 0.6335 0.0497 -0.7721
vn 0.7720 0.0497 -0.6336
vn 0.8808 0.0497 -0.4709
vn 0.9557 0.0497 -0.2900
vn 0.9940 0.0497 -0.0979
vn 0.9940 0.0497 0.0979
vn 0.9557 0.0497 0.2901
vn 0.8808 0.0497 0.4709
vn 0.7720 0.0497 0.6337
vn 0.6337 0.0497 0.7720
vn 0.4707 0.0497 0.8809
vn 0.2900 0.0497 0.9557
vn 0.0981 0.0497 0.9939
vn -0.0981 0.0497 0.9939
vn -0.2900 0.0497 0.9557
vn -0.4707 0.0497 0.8809
vn -0.6337 0.0497 0.7720
vn -0.7720 0.0497 0.6336
vn -0.8808 0.0497 0.4709
vn -0.9557 0.0497 0.2901
vn -0.9940 0.0497 0.0979
vn -0.9940 0.0497 -0.0979
vn -0.9557 0.0497 -0.2900
vn -0.8808 0.0497 -0.4709
vn -0.7720 0.0497 -0.6337
vn -0.6335 0.0497 -0.7721
vn -0.4709 0.0497 -0.8808
vn -0.2897 0.0497 -0.9558
vn -0.0981 0.0497 -0.9939
vn 0.0000 -1.0000 0.0000
vn 0.0000 -1.0000 -0.0012
vn 0.0000 -1.0000 0.0002
vn 0.0000 -1.0000 0.0008
vn 0.0000 -1.0000 0.0012
vn 0.0000 -1.0000 0.0009
vn 0.0000 -1.0000 -0.0006
vn 0.0000 -1.0000 -0.0008
vn 0.0000 -1.0000 0.0001
vn 0.0000 -1.0000 -0.0001
vn 0.0000 -1.0000 -0.0002
usemtl None
s off
f 1//1 24//1 2//1
f 2//2 24//2 3//2
f 3//3 24//3 4//3
f 4//4 24//4 5//4
f 5//5 24//5 6//5
f 6//6 24//6 7//6
f 7//7 24//7 8//7
f 8//8 24//8 9//8
f 9//9 24//9 10//9
f 10//10 24//10 11//10
f 11//11 24//11 12//11
f 12//12 24//12 13//12
f 13//13 24//13 14//13
f 14//14 24//14 15//14
f 15//15 24//15 16//15
f 16//16 24//16 17//16
f 17//17 24//17 18//17
f 18//18 24//18 19//18
f 19//19 24//19 20//19
f 20//20 24//20 21//20
f 21//21 24//21 22//21
f 22//22 24//22 23//22
f 23//23 24//23 25//23
f 25//24 24//24 26//24
f 26//25 24//25 27//25
f 27//26 24//26 28//26
f 28//27 24//27 29//27
f 29//28 24//28 30//28
f 30//29 24//29 31//29
f 31//30 24//30 32//30
f 32//31 24//31 33//31
f 33//32 24//32 1//32
f 8//33 16//33 25//33
f 33//33 1//33 2//33
f 2//33 3//33 4//33
f 4//34 5//34 6//34
f 6//33 7//33 4//33
f 7//33 8//33 4//33
f 8//33 9//33 10//33
f 10//33 11//33 8//33
f 11//35 12//35 8//35
f 12//33 13//33 16//33
f 13//36 14//36 16//36
f 14//33 15//33 16//33
f 16//33 17//33 18//33
f 18//33 19//33 20//33
f 20//37 21//37 22//37
f 22//38 23//38 25//38
f 25//33 26//33 27//33
f 27//39 28//39 29//39
f 29//33 30//33 33//33
f 30//40 31//40 33//40
f 31//33 32//33 33//33
f 33//33 2//33 4//33
f 16//41 18//41 25//41
f 18//42 20//42 25//42
f 20//43 22//43 25//43
f 25//33 27//33 33//33
f 27//35 29//35 33//35
f 33//33 4//33 8//33
f 8//42 12//42 16//42
f 33//33 8//33 25//33
