# Blender v2.79 (sub 0) OBJ File: ''
# www.blender.org
mtllib floor.mtl
o Cube
v 200.000000 -1.000000 -199.999985
v 200.000000 -1.000000 200.000000
v -200.000031 -1.000000 199.999969
v -199.999924 -1.000000 -200.000076
v 200.000092 1.000000 -199.999893
v 199.999863 1.000000 200.000122
v -200.000076 1.000000 199.999924
v -199.999985 1.000000 -200.000000
vn 0.0000 -1.0000 0.0000
vn 0.0000 1.0000 -0.0000
vn 1.0000 0.0000 0.0000
vn -0.0000 -0.0000 1.0000
vn -1.0000 -0.0000 -0.0000
vn 0.0000 0.0000 -1.0000
usemtl Material
s off
f 1//1 2//1 3//1 4//1
f 5//2 8//2 7//2 6//2
f 1//3 5//3 6//3 2//3
f 2//4 6//4 7//4 3//4
f 3//5 7//5 8//5 4//5
f 5//6 1//6 4//6 8//6
