# Blender v2.79 (sub 0) OBJ File: ''
# www.blender.org
mtllib floor.mtl
o Cube
v 19.070000 0.140000 -26.459997
v 19.070000 0.140000 26.459999
v -19.070002 0.140000 26.459995
v -19.069992 0.140000 -26.460009
v 19.070009 -0.140000 -26.459986
v 19.069986 -0.140000 26.460014
v -19.070007 -0.140000 26.459990
v -19.069998 -0.140000 -26.459999
vn 0.0000 1.0000 0.0000
vn 0.0000 -1.0000 0.0000
vn 1.0000 -0.0000 0.0000
vn -0.0000 0.0000 1.0000
vn -1.0000 0.0000 -0.0000
vn 0.0000 -0.0000 -1.0000
usemtl Material
s off
f 1//1 4//1 3//1 2//1
f 5//2 6//2 7//2 8//2
f 1//3 2//3 6//3 5//3
f 2//4 3//4 7//4 6//4
f 3//5 4//5 8//5 7//5
f 5//6 8//6 4//6 1//6
