# Blender v2.79 (sub 0) OBJ File: ''
# www.blender.org
mtllib thing.mtl
o Cube
v 6.380000 0.757194 -5.393954
v 6.380000 0.757194 6.606046
v -6.380001 0.757194 6.606045
v -6.379998 0.757194 -5.393956
v 6.380003 1.357194 -5.393951
v 6.379996 1.357194 6.606050
v -6.380002 1.357194 6.606044
v -6.380000 1.357194 -5.393954
vn 0.0000 -1.0000 0.0000
vn 0.0000 1.0000 0.0000
vn 1.0000 0.0000 0.0000
vn -0.0000 -0.0000 1.0000
vn -1.0000 -0.0000 -0.0000
vn 0.0000 0.0000 -1.0000
usemtl Material
s off
f 1//1 2//1 3//1 4//1
f 5//2 8//2 7//2 6//2
f 1//3 5//3 6//3 2//3
f 2//4 6//4 7//4 3//4
f 3//5 7//5 8//5 4//5
f 5//6 1//6 4//6 8//6
